<?xml version="1.0" standalone="no"?> <!DOCTYPE svg PUBLIC "-//W3C//DTD SVG 20010904//EN" "http://www.w3.org/TR/2001/REC-SVG-20010904/DTD/svg10.dtd"> <svg version="1.0" xmlns="http://www.w3.org/2000/svg" width="163.000000pt" height="169.000000pt" viewBox="0 0 163.000000 169.000000" preserveAspectRatio="xMidYMid meet"> <g transform="translate(0.000000,169.000000) scale(0.100000,-0.100000)" fill="#c81933" stroke="none"> <path d="M390 1515 c1 -96 6 -177 10 -180 12 -7 16 63 12 223 -2 78 -7 132 -13 132 -6 0 -9 -66 -9 -175z"/> <path d="M820 1663 c0 -22 2 -25 10 -13 13 20 13 40 0 40 -5 0 -10 -12 -10 -27z"/> <path d="M1250 1555 c0 -76 3 -135 6 -132 8 7 6 258 -1 265 -3 3 -5 -57 -5 -133z"/> <path d="M840 1615 c-9 -10 -23 -14 -44 -10 -33 6 -96 -24 -96 -46 0 -17 -82 -89 -101 -89 -10 0 -21 -4 -24 -10 -3 -5 -19 -10 -34 -10 -43 0 -65 -32 -67 -96 -1 -30 -4 -57 -6 -60 -3 -2 -17 0 -32 6 -41 15 -93 -10 -112 -55 -8 -20 -12 -40 -8 -46 8 -14 -25 -49 -47 -49 -33 0 -67 -22 -79 -51 -20 -47 13 -92 83 -113 22 -7 25 -96 4 -96 -8 0 -21 -8 -30 -18 -14 -16 -17 -44 -17 -188 0 -93 4 -174 8 -180 13 -20 52 -35 80 -32 24 3 27 0 30 -32 7 -96 34 -306 40 -312 18 -18 259 -40 437 -40 171 0 428 22 445 38 3 3 14 83 25 177 16 138 23 171 35 169 30 -7 80 10 91 29 7 13 10 83 9 187 -1 177 -7 202 -53 202 -15 0 -18 5 -13 23 3 12 6 34 6 50 0 22 4 27 26 27 28 0 84 49 84 74 0 28 -22 64 -46 75 -13 6 -24 17 -24 24 0 21 -32 46 -68 53 -18 4 -32 12 -32 19 0 7 -7 18 -14 25 -11 8 -12 18 -5 36 11 29 -10 77 -40 94 -11 5 -21 22 -23 37 -7 61 -96 80 -121 26 -13 -28 -37 -27 -52 4 -20 39 -36 51 -75 58 -37 6 -39 8 -33 36 11 57 -72 106 -107 64z m77 -83 c-2 -31 -7 -56 -12 -54 -6 1 -18 5 -27 8 -28 9 -90 -27 -102 -58 -6 -15 -18 -30 -27 -33 -10 -3 -20 -12 -23 -20 -10 -28 -24 -15 -23 21 1 27 -5 42 -22 55 -19 16 -21 22 -11 34 7 8 19 15 26 15 8 0 20 16 28 35 17 39 56 56 82 34 14 -11 19 -10 33 7 21 26 41 34 63 23 14 -7 17 -21 15 -67z m93 -62 c22 -22 25 -37 11 -59 -12 -19 4 -51 26 -51 29 0 53 -31 53 -69 0 -29 5 -38 27 -48 22 -11 29 -10 44 3 11 10 31 14 56 12 33 -3 40 -8 56 -41 15 -29 23 -36 38 -32 23 8 59 -11 59 -31 0 -8 -4 -13 -9 -9 -6 3 -28 1 -51 -4 -38 -8 -42 -7 -50 15 -9 24 -50 41 -69 29 -6 -3 -21 1 -33 9 -30 21 -58 20 -87 -5 -18 -15 -21 -23 -13 -31 9 -9 16 -7 31 6 19 18 61 15 61 -4 0 -5 19 -8 41 -7 23 1 44 -3 46 -9 2 -7 -44 -14 -137 -20 -147 -9 -167 -4 -110 28 22 13 30 24 30 46 0 42 -21 64 -66 68 -21 2 -55 7 -76 10 -43 7 -78 -20 -78 -61 0 -33 16 -32 32 3 15 32 49 40 72 17 12 -13 20 -14 36 -5 16 9 25 8 36 -1 19 -16 18 -48 -3 -56 -10 -4 -28 -17 -41 -30 -22 -24 -24 -24 -215 -22 -112 0 -197 5 -204 11 -21 17 -15 48 11 57 13 5 26 17 29 25 9 23 44 20 52 -4 4 -11 15 -20 26 -20 13 0 24 -10 30 -30 12 -34 29 -31 29 5 0 16 -10 31 -27 42 -16 9 -36 25 -46 35 -28 28 -58 22 -105 -22 -35 -31 -43 -45 -40 -67 2 -20 -1 -27 -12 -25 -8 2 -45 6 -82 9 -66 6 -84 15 -53 27 9 3 15 18 15 40 0 19 7 42 16 50 21 22 80 21 93 -1 9 -16 11 -17 26 -2 10 10 17 37 19 81 3 78 9 88 47 88 17 0 37 7 45 15 35 35 78 7 76 -49 -1 -22 6 -40 19 -52 20 -18 21 -18 39 3 10 13 30 27 44 33 15 5 26 17 26 28 0 38 56 68 95 50 22 -10 27 -8 46 15 25 32 42 34 69 7z m178 -22 c7 -7 12 -27 12 -45 0 -26 4 -33 20 -33 23 0 55 -43 47 -64 -3 -8 -20 -14 -40 -14 -19 0 -44 -5 -55 -11 -33 -18 -42 -13 -42 23 0 26 -7 41 -31 60 -17 14 -37 26 -45 26 -8 0 -14 4 -14 9 0 17 20 23 35 11 18 -15 45 -6 45 14 0 15 26 35 46 36 5 0 15 -5 22 -12z m-783 -349 c226 -24 888 -12 987 17 9 3 26 -4 37 -15 28 -28 11 -67 -33 -75 -258 -45 -1102 -35 -1161 14 -30 25 -3 87 34 76 9 -3 70 -10 136 -17z m125 -130 c91 -6 267 -10 392 -7 l227 4 -4 -36 -3 -35 -403 0 -404 0 -6 43 c-6 47 -3 54 20 48 9 -3 90 -10 181 -17z m800 9 c0 -7 -3 -30 -6 -51 l-7 -38 -75 3 -76 3 -2 36 -3 37 77 9 c42 6 80 11 85 12 4 0 7 -5 7 -11z m58 -295 l-3 -168 -150 -3 c-220 -4 -224 -3 -311 79 -43 40 -82 69 -94 69 -12 0 -51 -29 -94 -69 -86 -82 -96 -84 -321 -79 l-140 3 -3 168 -2 167 560 0 560 0 -2 -167z m-486 -128 c58 -61 67 -66 121 -75 32 -5 65 -6 74 -3 14 6 15 -2 10 -68 -4 -41 -9 -118 -13 -171 l-7 -98 -51 0 c-28 0 -68 -3 -88 -6 -35 -6 -38 -5 -38 17 0 12 9 32 19 43 15 16 21 43 27 109 6 83 6 89 -17 113 -17 18 -23 34 -21 58 2 19 -1 37 -7 41 -7 4 -11 -8 -11 -34 l0 -41 -76 0 -76 0 4 35 c2 22 0 34 -6 32 -6 -2 -11 -19 -11 -38 0 -19 -8 -46 -19 -62 -16 -23 -17 -38 -11 -105 4 -42 13 -87 21 -99 8 -12 14 -34 14 -48 l0 -25 -82 6 c-100 7 -109 9 -102 27 4 11 -10 238 -18 290 -3 15 6 18 58 22 84 6 101 14 164 83 30 33 61 60 67 61 7 0 41 -28 75 -64z m-396 -85 c7 0 11 -34 13 -92 1 -88 3 -107 17 -194 l5 -37 -56 6 c-32 3 -59 7 -61 9 -2 2 -10 65 -19 139 -8 73 -17 143 -20 155 -4 19 -1 21 53 18 31 -2 62 -3 68 -4z m764 -12 c0 -13 -7 -68 -15 -123 -8 -55 -15 -117 -15 -137 0 -39 -11 -45 -85 -49 -53 -2 -55 -1 -45 26 5 14 11 84 12 157 l3 133 45 6 c92 12 100 11 100 -13z m-358 -65 c24 -21 24 -56 1 -49 -25 8 -152 10 -159 3 -14 -14 10 -27 39 -22 30 6 31 5 12 -9 -11 -9 -26 -16 -32 -16 -7 0 -13 -4 -13 -10 0 -6 30 -10 70 -10 40 0 70 4 70 10 0 6 -9 10 -19 10 -22 0 -40 20 -19 21 7 0 23 2 35 5 19 3 21 -1 21 -46 1 -66 -14 -80 -86 -80 -31 0 -63 4 -71 9 -8 5 -15 31 -17 62 -2 30 -6 65 -9 78 -4 14 0 30 11 42 23 26 138 27 166 2z m-12 -243 c0 -18 -7 -20 -75 -20 -68 0 -75 2 -75 20 0 18 7 20 75 20 68 0 75 -2 75 -20z"/> <path d="M416 1212 c-3 -5 1 -9 9 -9 8 0 12 4 9 9 -3 4 -7 8 -9 8 -2 0 -6 -4 -9 -8z"/> <path d="M1161 1354 c0 -11 3 -14 6 -6 3 7 2 16 -1 19 -3 4 -6 -2 -5 -13z"/> <path d="M1368 1063 c7 -3 16 -2 19 1 4 3 -2 6 -13 5 -11 0 -14 -3 -6 -6z"/> <path d="M418 1053 c7 -3 16 -2 19 1 4 3 -2 6 -13 5 -11 0 -14 -3 -6 -6z"/> <path d="M508 1043 c6 -2 18 -2 25 0 6 3 1 5 -13 5 -14 0 -19 -2 -12 -5z"/> <path d="M555 1040 c-3 -6 1 -7 9 -4 18 7 21 14 7 14 -6 0 -13 -4 -16 -10z"/> <path d="M490 930 c0 -11 5 -20 10 -20 6 0 10 9 10 20 0 11 -4 20 -10 20 -5 0 -10 -9 -10 -20z"/> <path d="M722 931 c2 -7 7 -12 11 -12 12 1 9 15 -3 20 -7 2 -11 -2 -8 -8z"/> <path d="M910 931 c0 -6 5 -13 10 -16 6 -3 10 1 10 9 0 9 -4 16 -10 16 -5 0 -10 -4 -10 -9z"/> <path d="M353 800 c-33 -14 -43 -42 -43 -118 0 -55 4 -75 21 -96 20 -26 21 -26 162 -26 78 0 147 4 153 8 23 15 34 53 34 120 0 54 -4 75 -19 93 -18 23 -26 24 -153 26 -73 2 -143 -2 -155 -7z m276 -44 c7 -9 11 -40 9 -83 l-3 -68 -134 -3 c-101 -2 -136 1 -143 10 -12 19 -10 132 3 145 6 6 61 11 133 12 96 1 126 -2 135 -13z"/> <path d="M385 730 c-3 -5 -1 -10 4 -10 6 0 11 5 11 10 0 6 -2 10 -4 10 -3 0 -8 -4 -11 -10z"/> <path d="M523 693 c-106 -86 -108 -96 -6 -28 58 38 94 75 73 75 -5 0 -35 -21 -67 -47z"/> <path d="M1023 800 c-33 -14 -43 -42 -43 -118 0 -55 4 -75 21 -96 20 -26 21 -26 164 -26 143 0 144 0 164 26 29 37 30 160 2 195 -18 23 -26 24 -153 26 -73 2 -143 -1 -155 -7z m273 -41 c14 -12 20 -112 8 -143 -9 -24 -269 -24 -278 0 -10 27 -7 129 5 141 16 16 247 17 265 2z"/> <path d="M1050 730 c-9 -6 -10 -10 -3 -10 6 0 15 5 18 10 8 12 4 12 -15 0z"/> <path d="M1209 708 c-24 -17 -49 -36 -56 -42 -7 -6 -20 -17 -28 -25 -9 -7 -13 -16 -9 -20 4 -3 9 0 11 7 3 6 10 12 17 12 7 0 21 9 31 20 10 11 23 20 30 20 6 0 24 14 40 30 38 39 19 38 -36 -2z"/> <path d="M787 513 c-10 -10 -8 -43 2 -43 9 0 21 24 21 41 0 11 -14 12 -23 2z"/> <path d="M850 511 c0 -21 13 -41 26 -41 15 0 17 10 8 34 -7 17 -34 22 -34 7z"/> <path d="M1036 385 c-9 -26 -7 -32 5 -12 6 10 9 21 6 23 -2 3 -7 -2 -11 -11z"/> <path d="M1006 355 c-9 -26 -7 -32 5 -12 6 10 9 21 6 23 -2 3 -7 -2 -11 -11z"/> <path d="M462 230 c0 -14 2 -19 5 -12 2 6 2 18 0 25 -3 6 -5 1 -5 -13z"/> <path d="M1 1285 c7 -7 310 -8 316 -1 4 3 -67 6 -157 6 -90 0 -161 -2 -159 -5z"/> <path d="M1313 1284 c7 -7 308 -6 316 1 2 3 -69 5 -159 5 -90 0 -161 -3 -157 -6z"/> <path d="M10 860 c-10 -7 21 -10 95 -9 71 0 103 3 90 9 -28 12 -167 12 -185 0z"/> <path d="M1465 860 c-4 -6 25 -10 79 -10 51 0 86 4 86 10 0 6 -33 10 -79 10 -44 0 -83 -4 -86 -10z"/> <path d="M0 430 c0 -13 287 -13 295 0 4 6 -47 10 -144 10 -94 0 -151 -4 -151 -10z"/> <path d="M1351 431 c-6 -4 54 -8 134 -10 98 -1 145 2 145 9 0 12 -259 13 -279 1z"/> <path d="M1250 52 c0 -29 4 -52 9 -52 8 0 3 90 -5 99 -2 2 -4 -19 -4 -47z"/> <path d="M400 85 c-8 -46 -6 -85 4 -85 8 0 11 13 8 38 -4 42 -9 63 -12 47z"/> <path d="M820 31 c0 -17 4 -31 9 -31 5 0 9 11 9 25 0 14 -4 28 -9 31 -5 3 -9 -9 -9 -25z"/> <path d="M248 3 c18 -2 45 -2 60 0 15 2 0 4 -33 4 -33 0 -45 -2 -27 -4z"/> <path d="M448 3 c7 -3 16 -2 19 1 4 3 -2 6 -13 5 -11 0 -14 -3 -6 -6z"/> <path d="M507 3 c18 -2 50 -2 70 0 21 2 7 4 -32 4 -38 0 -55 -2 -38 -4z"/> <path d="M913 3 c9 -2 25 -2 35 0 9 3 1 5 -18 5 -19 0 -27 -2 -17 -5z"/> <path d="M1508 3 c23 -2 61 -2 85 0 23 2 4 4 -43 4 -47 0 -66 -2 -42 -4z"/> </g> </svg>