<?xml version="1.0" standalone="no"?>
<!DOCTYPE svg PUBLIC "-//W3C//DTD SVG 20010904//EN"
 "http://www.w3.org/TR/2001/REC-SVG-20010904/DTD/svg10.dtd">
<svg version="1.0" xmlns="http://www.w3.org/2000/svg"
 width="500.000000pt" height="500.000000pt" viewBox="0 0 500.000000 500.000000"
 preserveAspectRatio="xMidYMid meet">
<g transform="translate(0.000000,500.000000) scale(0.100000,-0.100000)"
fill="#e81111" stroke="none">
<path d="M1064 3285 c0 -66 1 -92 3 -57 2 34 2 88 0 120 -2 31 -3 3 -3 -63z"/>
<path d="M690 3370 c0 -11 5 -20 10 -20 6 0 10 9 10 20 0 11 -4 20 -10 20 -5
0 -10 -9 -10 -20z"/>
<path d="M331 3241 c1 -76 5 -145 10 -152 5 -8 9 49 9 139 0 98 -4 152 -10
152 -7 0 -10 -49 -9 -139z"/>
<path d="M715 3324 c-15 -8 -39 -14 -54 -14 -27 0 -71 -24 -71 -40 0 -14 -60
-70 -75 -70 -8 0 -17 -4 -20 -10 -3 -5 -19 -10 -35 -10 -38 0 -59 -32 -58 -88
0 -48 -5 -58 -24 -46 -44 28 -107 -10 -108 -66 -1 -35 -23 -60 -52 -60 -55 0
-80 -83 -36 -114 12 -9 30 -16 40 -16 12 0 18 -8 18 -22 0 -13 3 -33 6 -45 5
-17 2 -23 -11 -23 -39 0 -45 -22 -45 -174 0 -162 5 -176 66 -176 20 0 34 -5
34 -12 1 -19 11 -110 24 -208 l11 -85 105 -12 c144 -16 423 -16 543 1 54 8
100 16 102 18 2 1 11 69 21 151 l17 147 32 0 c64 0 68 10 66 175 -1 81 -4 152
-7 157 -3 5 -17 13 -30 18 -20 8 -23 14 -18 37 10 49 13 53 34 53 28 0 60 35
60 65 0 31 -89 125 -118 125 -22 0 -48 51 -38 75 7 20 -18 70 -39 78 -8 4 -15
15 -15 25 0 24 -31 52 -58 52 -11 0 -29 -11 -40 -25 -20 -25 -52 -26 -52 0 0
17 -31 42 -62 50 -23 6 -28 13 -28 40 0 50 -40 73 -85 49z m52 -26 c5 -7 10
-32 11 -54 l1 -42 -39 5 c-41 6 -41 6 -110 -75 -28 -33 -43 -32 -34 2 3 15 -2
28 -15 40 -27 24 -26 34 2 47 13 6 27 20 32 31 16 34 41 45 66 30 18 -12 23
-11 36 7 16 24 36 27 50 9z m90 -100 c4 -7 8 -31 8 -53 0 -32 4 -40 20 -43 32
-6 45 -22 45 -56 0 -45 29 -61 69 -38 28 15 33 16 58 2 16 -9 29 -26 31 -39 3
-18 8 -22 24 -17 22 5 58 -9 58 -23 0 -5 -18 -11 -40 -14 -34 -4 -45 -1 -66
20 -18 18 -32 23 -49 19 -13 -3 -27 -2 -30 4 -10 15 -61 12 -75 -5 -18 -22 -4
-31 25 -15 20 11 27 11 41 -1 9 -7 29 -12 44 -11 16 2 31 -1 35 -7 4 -7 -3
-11 -17 -12 -36 0 -150 -9 -185 -14 -37 -4 -43 9 -13 25 57 31 41 94 -27 103
-21 2 -48 8 -60 12 -16 5 -28 0 -47 -19 -28 -27 -34 -56 -12 -56 8 0 17 11 20
25 7 29 36 33 61 9 12 -13 19 -14 30 -4 12 10 18 10 30 0 20 -17 19 -39 -2
-47 -10 -3 -26 -15 -36 -25 -17 -17 -34 -19 -187 -18 -140 1 -169 4 -174 17
-10 25 -7 33 19 43 14 5 25 14 25 20 0 5 9 10 20 10 11 0 20 -7 20 -15 0 -8 9
-15 20 -15 11 0 20 -4 20 -8 0 -5 6 -16 13 -26 13 -18 14 -18 20 -1 5 12 -5
28 -35 56 -50 46 -66 48 -102 14 -15 -14 -31 -25 -37 -25 -5 0 -9 -13 -9 -30
l0 -30 -70 0 c-66 0 -90 10 -55 24 11 4 14 13 9 30 -4 17 0 30 15 45 25 25 48
27 72 6 26 -24 45 2 48 66 2 60 13 79 43 74 11 -2 27 2 35 10 30 31 70 4 59
-38 -4 -17 0 -30 14 -42 20 -18 21 -18 43 3 13 12 28 22 33 22 6 0 17 15 25
33 15 34 58 49 83 28 10 -9 17 -5 30 14 18 27 50 33 63 13z m154 -32 c1 -6 2
-19 3 -29 1 -10 12 -23 26 -30 16 -8 26 -23 28 -40 3 -25 1 -27 -22 -21 -17 4
-35 0 -51 -10 -24 -16 -26 -16 -31 1 -18 57 -29 72 -55 83 -36 15 -28 31 11
23 23 -4 30 -2 30 10 0 31 58 43 61 13z m-489 -294 c203 -8 507 1 603 16 65
11 95 3 95 -26 0 -34 -17 -42 -115 -54 -140 -17 -703 -17 -817 1 -99 15 -119
28 -95 64 15 23 19 23 79 15 35 -5 147 -12 250 -16z m-9 -108 c86 -5 107 -9
103 -20 -3 -7 -1 -16 4 -19 6 -4 10 3 10 15 0 19 5 20 103 19 56 0 134 2 173
6 l72 7 -7 -33 -7 -34 -339 0 -340 0 -3 41 -3 41 63 -8 c35 -5 112 -11 171
-15z m617 2 c0 -8 -4 -26 -10 -40 -8 -23 -13 -25 -68 -23 -32 1 -59 5 -60 10
-9 37 0 56 26 60 66 10 112 7 112 -7z m48 -238 l-3 -143 -145 -3 c-80 -1 -156
0 -169 3 -13 3 -52 33 -87 66 -45 44 -68 59 -81 55 -10 -3 -40 -29 -68 -57
-27 -28 -60 -55 -73 -60 -13 -5 -91 -9 -173 -9 l-149 0 0 145 0 145 475 0 476
0 -3 -142z m-439 -87 c22 -24 26 -35 23 -75 l-4 -46 -59 0 -59 0 0 31 c0 17
-4 28 -10 24 -5 -3 -10 -20 -10 -36 0 -17 -7 -38 -16 -46 -13 -13 -14 -29 -9
-87 4 -39 16 -86 26 -106 11 -19 19 -29 19 -22 0 16 102 16 118 0 9 -9 12 -8
12 5 0 9 4 17 9 17 29 0 43 169 17 199 -16 20 -30 101 -17 101 6 0 17 -10 25
-22 12 -17 28 -23 77 -26 l61 -5 -7 -101 c-4 -55 -9 -119 -10 -141 -3 -36 -6
-40 -31 -43 -59 -6 -402 -4 -412 2 -5 3 -13 56 -16 118 -4 62 -9 125 -12 141
-6 27 -5 27 45 27 61 0 88 10 121 43 14 14 36 37 50 51 31 33 36 32 69 -3z
m-317 -96 c10 -4 13 -33 13 -115 0 -61 2 -110 6 -110 4 0 9 -11 11 -25 6 -27
0 -29 -63 -19 -29 5 -37 11 -37 28 1 35 -21 212 -28 230 -5 13 1 16 39 16 25
0 51 -2 59 -5z m651 -35 c-4 -89 -27 -216 -41 -227 -9 -7 -34 -13 -55 -13
l-40 0 7 38 c7 35 15 140 16 210 l0 33 57 -3 57 -3 -1 -35z m-295 -37 c12 -23
0 -129 -16 -145 -12 -12 -112 -12 -123 0 -4 4 -9 28 -11 53 -5 42 -3 46 13 42
21 -6 26 -23 7 -23 -6 0 -8 -3 -5 -7 4 -3 32 -7 62 -7 44 -1 54 2 50 13 -3 8
0 18 7 22 24 15 -3 23 -72 23 -44 0 -70 4 -70 11 0 24 27 35 87 35 49 0 64 -4
71 -17z"/>
<path d="M811 3104 c0 -11 3 -14 6 -6 3 7 2 16 -1 19 -3 4 -6 -2 -5 -13z"/>
<path d="M810 3069 c-22 -18 -22 -19 -3 -10 12 6 25 16 28 21 9 15 3 12 -25
-11z"/>
<path d="M674 3049 c0 -10 4 -19 8 -19 4 0 8 6 8 14 0 8 -4 17 -8 20 -4 2 -8
-4 -8 -15z"/>
<path d="M631 2993 c7 -12 15 -20 18 -17 3 2 -3 12 -13 22 -17 16 -18 16 -5
-5z"/>
<path d="M858 2823 c7 -3 16 -2 19 1 4 3 -2 6 -13 5 -11 0 -14 -3 -6 -6z"/>
<path d="M410 2746 c0 -8 5 -18 10 -21 6 -3 10 1 10 9 0 8 -4 18 -10 21 -5 3
-10 -1 -10 -9z"/>
<path d="M770 2730 c0 -5 5 -10 10 -10 6 0 10 5 10 10 0 6 -4 10 -10 10 -5 0
-10 -4 -10 -10z"/>
<path d="M280 2612 c-10 -11 -15 -39 -15 -90 0 -99 5 -102 156 -102 141 0 151
5 151 80 0 130 0 130 -155 130 -102 -1 -125 -4 -137 -18z m255 -87 l0 -70
-115 0 -115 0 -3 59 c-5 90 -9 87 120 84 l113 -3 0 -70z"/>
<path d="M433 2525 c-55 -51 -43 -62 14 -12 64 55 66 57 50 57 -9 0 -37 -20
-64 -45z"/>
<path d="M621 2614 c0 -11 3 -14 6 -6 3 7 2 16 -1 19 -3 4 -6 -2 -5 -13z"/>
<path d="M847 2612 c-12 -13 -17 -37 -17 -85 0 -100 10 -107 153 -107 150 0
157 5 157 105 0 100 -7 105 -161 105 -100 0 -118 -3 -132 -18z m247 -18 c20
-8 23 -116 3 -132 -14 -12 -215 -13 -223 -1 -8 13 -9 114 -1 126 7 12 192 18
221 7z"/>
<path d="M1034 2557 c-6 -7 -28 -27 -50 -45 -30 -26 -34 -32 -16 -27 27 8 109
85 90 85 -7 -1 -18 -6 -24 -13z"/>
<path d="M657 2370 c-3 -11 -1 -23 5 -26 12 -7 15 -4 20 20 4 26 -18 32 -25 6z"/>
<path d="M720 2366 c0 -17 5 -26 16 -26 10 0 14 7 12 22 -5 32 -28 35 -28 4z"/>
<path d="M538 2303 c6 -2 18 -2 25 0 6 3 1 5 -13 5 -14 0 -19 -2 -12 -5z"/>
<path d="M892 2284 c-7 -8 -8 -14 -3 -14 10 0 25 19 20 25 -2 1 -10 -3 -17
-11z"/>
<path d="M860 2245 c0 -8 2 -15 4 -15 2 0 6 7 10 15 3 8 1 15 -4 15 -6 0 -10
-7 -10 -15z"/>
<path d="M841 2234 c0 -11 3 -14 6 -6 3 7 2 16 -1 19 -3 4 -6 -2 -5 -13z"/>
<path d="M1100 3229 c0 -5 5 -7 10 -4 6 3 10 8 10 11 0 2 -4 4 -10 4 -5 0 -10
-5 -10 -11z"/>
<path d="M0 3040 c0 -6 45 -10 120 -10 66 0 120 4 120 9 0 5 -54 10 -120 10
-76 1 -120 -2 -120 -9z"/>
<path d="M250 3039 c0 -5 5 -7 10 -4 6 3 10 8 10 11 0 2 -4 4 -10 4 -5 0 -10
-5 -10 -11z"/>
<path d="M1120 3040 c-10 -7 26 -10 113 -10 70 0 130 0 134 -1 4 0 9 4 11 10
5 14 -237 15 -258 1z"/>
<path d="M37 2673 c24 -2 62 -2 85 0 24 2 5 4 -42 4 -47 0 -66 -2 -43 -4z"/>
<path d="M1230 2676 c0 -2 7 -6 15 -10 8 -3 15 -1 15 4 0 6 -7 10 -15 10 -8 0
-15 -2 -15 -4z"/>
<path d="M1270 2673 c0 -9 98 -8 107 1 4 3 -19 6 -50 6 -31 0 -57 -3 -57 -7z"/>
<path d="M1261 2614 c0 -11 3 -14 6 -6 3 7 2 16 -1 19 -3 4 -6 -2 -5 -13z"/>
<path d="M1443 2505 c0 -8 4 -12 9 -9 5 3 6 10 3 15 -9 13 -12 11 -12 -6z"/>
<path d="M1743 2506 c0 -11 15 -14 37 -6 3 1 9 2 13 1 5 -1 6 3 2 9 -5 8 -11
8 -19 1 -8 -7 -16 -7 -23 0 -6 6 -10 5 -10 -5z"/>
<path d="M2124 2500 c0 -13 4 -16 10 -10 7 7 7 13 0 20 -6 6 -10 3 -10 -10z"/>
<path d="M2461 2506 c-9 -10 -7 -17 6 -27 16 -12 17 -12 6 2 -10 12 -10 18 -1
27 7 7 9 12 6 12 -3 0 -11 -6 -17 -14z"/>
<path d="M2840 2510 c0 -5 5 -10 11 -10 5 0 7 5 4 10 -3 6 -8 10 -11 10 -2 0
-4 -4 -4 -10z"/>
<path d="M3202 2511 c-11 -7 -10 -9 3 -14 9 -4 14 -3 10 2 -3 5 1 12 7 14 7 3
9 6 3 6 -5 0 -16 -3 -23 -8z"/>
<path d="M3445 2510 c-3 -6 1 -7 9 -4 18 7 21 14 7 14 -6 0 -13 -4 -16 -10z"/>
<path d="M4070 2514 c0 -1 8 -8 17 -15 9 -8 14 -9 10 -2 -4 6 -1 13 5 16 7 3
3 4 -9 4 -13 -1 -23 -2 -23 -3z"/>
<path d="M4510 2516 c0 -2 7 -7 16 -10 8 -3 12 -2 9 4 -6 10 -25 14 -25 6z"/>
<path d="M1524 2499 c-50 -12 -83 -45 -90 -90 -12 -72 32 -118 130 -139 62
-13 76 -25 76 -61 0 -55 -89 -63 -148 -14 l-29 24 -23 -24 c-23 -24 -23 -25
-4 -46 33 -37 76 -52 140 -52 69 1 116 22 133 60 16 35 13 91 -6 124 -17 28
-34 37 -143 70 -35 11 -46 19 -48 38 -7 50 65 68 124 32 l32 -19 21 29 22 29
-33 20 c-18 11 -42 20 -53 20 -11 0 -29 2 -40 4 -11 2 -38 0 -61 -5z m140 -51
c-3 -4 -10 -8 -15 -8 -6 0 -7 5 -3 12 5 8 2 9 -11 5 -19 -8 -48 10 -40 24 3 4
21 1 40 -8 19 -9 32 -20 29 -25z m-138 10 c5 -7 3 -8 -5 -4 -17 11 -38 -21
-36 -55 1 -15 -2 -26 -6 -24 -4 3 -10 -1 -12 -7 -4 -8 -6 -7 -6 4 -1 9 4 20 9
23 6 3 10 11 10 17 0 6 -6 6 -15 -2 -13 -11 -14 -10 -9 4 3 9 10 16 16 16 5 0
6 5 2 12 -4 6 -3 8 3 5 6 -4 13 0 17 8 6 18 22 20 32 3z m41 6 c-3 -3 -12 -4
-19 -1 -8 3 -5 6 6 6 11 1 17 -2 13 -5z m-64 -121 c-3 -8 -2 -13 3 -12 5 1 18
1 29 0 19 -2 18 -3 -3 -11 -16 -7 -27 -5 -42 7 -21 18 -19 30 4 30 8 0 12 -6
9 -14z m90 -37 c4 -10 0 -12 -14 -9 -10 3 -16 9 -13 14 8 13 21 11 27 -5z m58
-12 c7 -8 8 -18 4 -22 -4 -4 -10 -2 -12 5 -2 7 -10 10 -17 7 -8 -3 -16 3 -18
14 -4 15 -1 18 13 15 10 -3 24 -12 30 -19z m37 -36 c18 -18 14 -63 -8 -83 -11
-10 -17 -22 -14 -26 3 -5 -2 -6 -11 -2 -13 5 -14 7 -3 14 7 5 14 13 14 19 1 5
2 16 3 23 1 8 4 7 11 -3 6 -9 10 -10 10 -3 0 6 -5 15 -11 19 -8 4 -7 9 2 15 7
4 10 11 6 15 -3 4 -14 1 -24 -7 -11 -9 -14 -10 -9 -1 4 7 2 12 -6 12 -9 0 -9
3 2 10 19 13 24 12 38 -2z m-195 -91 c4 3 7 2 7 -4 0 -6 -7 -14 -16 -17 -24
-9 -31 -7 -14 4 10 6 11 10 3 10 -7 0 -13 5 -13 11 0 8 4 9 13 0 8 -6 17 -8
20 -4z m91 -46 c-2 -3 -12 3 -22 13 -16 17 -16 18 5 5 12 -7 20 -15 17 -18z"/>
<path d="M1607 2469 c7 -7 15 -10 18 -7 3 3 -2 9 -12 12 -14 6 -15 5 -6 -5z"/>
<path d="M1875 2486 c-62 -27 -95 -93 -95 -188 1 -112 46 -177 138 -197 83
-17 157 12 193 76 l17 30 -34 16 c-33 16 -33 16 -46 -11 -28 -57 -112 -66
-159 -16 -19 21 -24 38 -27 98 -4 70 -3 75 26 107 26 29 37 34 77 34 39 0 51
-5 71 -28 23 -27 24 -27 54 -12 l31 16 -18 29 c-9 16 -31 36 -49 45 -39 18
-138 19 -179 1z m105 -23 c0 -2 -12 -4 -27 -3 -16 1 -33 2 -39 1 -17 -2 -54
-37 -47 -45 3 -3 1 -6 -6 -6 -7 0 -9 -4 -6 -10 4 -6 -1 -7 -11 -3 -14 5 -15 3
-6 -14 7 -12 7 -25 1 -34 -11 -18 -8 -122 4 -130 5 -3 0 -8 -10 -11 -13 -4
-18 1 -19 16 0 12 -4 34 -9 50 -5 20 -5 27 3 22 7 -4 9 8 7 39 -3 30 0 43 7
39 6 -4 8 1 3 15 -5 16 -2 21 10 21 11 0 15 5 11 16 -3 8 -2 12 4 9 6 -3 10
-2 10 3 0 16 59 39 90 34 16 -2 30 -6 30 -9z m73 -17 c14 -14 23 -26 18 -26
-4 0 -18 11 -31 25 -12 13 -26 22 -31 20 -4 -3 -10 -1 -14 4 -12 20 33 2 58
-23z m-193 -257 c0 -5 4 -8 9 -4 5 3 13 0 17 -7 4 -7 4 -10 -1 -6 -4 4 -14 0
-22 -10 -8 -9 -12 -11 -8 -4 3 6 1 12 -5 12 -6 0 -9 4 -6 9 4 5 0 12 -6 14 -8
3 -6 6 5 6 9 1 17 -4 17 -10z m225 -9 c4 -6 -1 -7 -11 -3 -13 5 -15 3 -9 -7 5
-9 4 -11 -4 -6 -6 4 -9 12 -6 17 8 12 22 12 30 -1z m-34 -27 c13 -16 12 -17
-3 -4 -10 7 -18 15 -18 17 0 8 8 3 21 -13z m-151 -17 c14 -18 14 -18 -7 -6
-12 8 -19 18 -16 23 3 4 6 7 7 5 1 -2 8 -12 16 -22z m70 -14 c3 -2 -6 -1 -20
3 -14 4 -32 14 -40 22 -11 10 -5 9 20 -3 19 -9 37 -19 40 -22z m64 19 c3 -5 0
-11 -7 -14 -8 -3 -14 1 -14 9 0 16 13 19 21 5z"/>
<path d="M1825 2359 c-4 -6 -5 -12 -2 -15 2 -3 7 2 10 11 7 17 1 20 -8 4z"/>
<path d="M2190 2300 l0 -200 40 0 40 0 0 85 0 85 28 0 c46 0 70 -25 93 -100
l21 -70 43 0 43 0 -28 76 c-16 42 -39 87 -50 99 l-22 23 21 7 c31 9 54 51 53
91 -3 82 -42 104 -182 104 l-100 0 0 -200z m63 150 c-4 -8 -7 -36 -8 -62 0
-28 -4 -44 -10 -40 -5 3 -4 -1 2 -10 7 -8 9 -19 5 -23 -4 -5 -1 -5 6 -1 14 8
17 -29 3 -39 -5 -3 -10 -33 -10 -67 0 -33 -4 -65 -10 -71 -7 -7 -11 46 -13
159 l-3 169 23 0 c16 0 20 -4 15 -15z m134 14 c-3 -3 -12 -4 -19 -1 -8 3 -5 6
6 6 11 1 17 -2 13 -5z m33 -8 c0 -2 -7 -7 -16 -10 -8 -3 -12 -2 -9 4 6 10 25
14 25 6z m-42 -32 c12 -8 22 -26 22 -39 0 -38 -25 -55 -83 -55 l-52 0 3 55 4
55 42 0 c23 0 52 -7 64 -16z m53 -72 c-6 -2 -8 -9 -5 -14 5 -7 2 -8 -5 -3 -9
5 -10 10 -2 18 6 6 12 27 13 47 l1 35 4 -40 c3 -23 0 -41 -6 -43z m-31 -42
c-8 -5 -19 -10 -25 -10 -5 0 -3 5 5 10 8 5 20 10 25 10 6 0 3 -5 -5 -10z m-17
-30 c30 -26 59 -68 38 -56 -17 11 -13 -10 4 -24 18 -15 19 -36 3 -46 -7 -4 -8
-3 -4 5 4 6 -2 25 -14 41 -12 17 -17 30 -11 30 6 0 11 5 11 11 0 5 -5 7 -10 4
-6 -4 -9 -1 -8 7 2 7 -3 12 -10 10 -8 -1 -11 2 -7 8 4 6 -7 13 -25 16 -36 8
-48 21 -17 20 12 -1 35 -12 50 -26z"/>
<path d="M2310 2390 c-9 -6 -10 -10 -3 -10 6 0 15 5 18 10 8 12 4 12 -15 0z"/>
<path d="M2560 2300 l0 -200 135 0 135 0 0 36 0 35 -95 -3 -95 -3 0 58 0 58
78 -2 c42 -1 78 1 80 5 1 3 2 17 2 31 0 25 -1 25 -80 25 l-80 0 0 48 0 47 95
-3 95 -3 0 35 0 36 -135 0 -135 0 0 -200z m80 169 c0 -4 -7 -14 -15 -23 -9 -8
-15 -33 -15 -56 0 -23 6 -48 15 -56 8 -9 15 -19 15 -24 0 -5 -7 -15 -15 -24
-9 -9 -15 -34 -15 -66 0 -50 10 -71 40 -83 12 -4 12 -6 -2 -7 -57 -7 -53 -20
-55 171 l-2 175 25 0 c13 0 24 -3 24 -7z"/>
<path d="M2905 2300 l0 -200 138 0 137 0 0 36 0 35 -96 -2 -97 -2 0 54 0 54
79 1 79 1 3 32 3 31 -83 0 -84 0 2 46 2 47 90 -2 90 -2 4 35 4 36 -136 0 -135
0 0 -200z m66 146 c-7 -8 -11 -38 -10 -70 2 -50 5 -56 28 -65 24 -9 24 -9 4
-10 -23 -1 -39 -33 -27 -52 4 -8 3 -9 -4 -5 -23 14 -14 -66 10 -91 l21 -23
-31 0 -32 0 0 153 c0 154 3 170 30 179 21 7 25 1 11 -16z"/>
<path d="M3250 2300 l0 -200 41 0 41 0 -4 140 c-2 77 -1 140 2 140 3 -1 42
-63 87 -138 l81 -137 44 -3 43 -3 0 201 0 200 -40 0 -40 0 3 -82 c2 -46 2
-105 0 -133 l-3 -49 -83 132 -84 132 -44 0 -44 0 0 -200z m69 167 c13 4 14 3
1 -5 -8 -6 -17 -9 -21 -6 -10 6 -5 -24 6 -33 4 -4 5 -3 1 4 -8 14 10 27 19 13
4 -6 10 -8 15 -5 4 3 17 -11 29 -31 12 -19 15 -32 9 -27 -14 8 -19 10 -44 12
-8 0 -12 6 -9 11 3 6 4 10 0 10 -17 0 -28 -67 -26 -170 1 -63 0 -112 -3 -109
-4 3 -8 83 -10 178 -3 116 0 169 6 163 6 -6 18 -8 27 -5z m231 -178 l0 -160
-22 3 c-14 2 -23 10 -23 20 0 10 -9 24 -19 31 -11 8 -16 19 -12 25 4 7 2 12
-4 12 -6 0 -8 5 -4 11 4 8 9 7 15 -2 5 -8 9 -10 9 -5 0 5 8 2 17 -5 9 -8 14
-9 10 -3 -4 7 0 17 8 24 11 10 15 36 15 111 0 55 2 99 5 99 3 0 5 -72 5 -161z
m-156 59 c-3 -4 0 -8 5 -8 6 0 11 -4 11 -10 0 -16 -14 -12 -27 8 -9 15 -8 19
3 19 7 0 11 -4 8 -9z m29 -45 c-3 -10 -3 -15 2 -11 13 12 35 -12 28 -29 -4
-11 -2 -14 5 -9 7 4 12 5 12 2 0 -3 -4 -7 -9 -11 -12 -7 -54 52 -46 65 10 16
15 12 8 -7z"/>
<path d="M3340 2411 c0 -5 5 -13 10 -16 6 -3 10 -2 10 4 0 5 -4 13 -10 16 -5
3 -10 2 -10 -4z"/>
<path d="M3487 2207 c-3 -8 1 -14 8 -14 7 0 11 6 8 14 -3 7 -6 13 -8 13 -2 0
-5 -6 -8 -13z"/>
<path d="M3685 2300 l0 -200 43 0 43 0 -3 90 -3 90 93 0 94 0 -4 -90 -3 -90
40 0 40 0 0 200 0 200 -41 0 -40 0 4 -75 4 -75 -94 0 -93 0 3 75 4 75 -44 0
-43 0 0 -200z m53 108 c4 -64 8 -82 21 -74 4 3 7 -4 8 -14 1 -10 -5 -21 -13
-24 -11 -4 -14 -25 -14 -88 0 -51 -4 -78 -9 -73 -13 14 -19 324 -6 329 6 3 10
5 10 5 0 1 2 -27 3 -61z m255 -11 c0 -34 -2 -108 -2 -165 -1 -66 -5 -101 -11
-97 -5 3 -10 40 -10 81 0 41 -4 74 -9 74 -19 0 -20 32 -1 52 14 16 20 36 20
70 0 26 3 48 8 48 4 0 6 -28 5 -63z m-157 -94 c-7 -7 -26 7 -26 19 0 6 6 6 15
-2 9 -7 13 -15 11 -17z"/>
<path d="M4130 2300 l0 -200 40 0 40 0 0 200 0 200 -40 0 -40 0 0 -200z m51
146 c-6 -7 -12 -80 -14 -162 l-3 -149 0 162 c1 94 -3 159 -8 156 -5 -4 -6 -1
-2 5 4 6 13 9 22 5 10 -4 11 -9 5 -17z"/>
<path d="M4272 2488 c3 -7 33 -97 67 -200 l63 -188 48 0 48 0 63 188 c34 103
64 193 67 200 3 8 -8 12 -37 12 l-41 0 -47 -150 c-26 -82 -50 -150 -53 -150
-3 0 -25 67 -50 148 l-46 147 -43 3 c-33 2 -42 0 -39 -10z m59 -26 c-8 -3 -7
-8 6 -18 11 -8 13 -13 6 -14 -7 0 -13 -5 -13 -11 0 -5 4 -8 9 -5 11 7 22 -26
27 -84 3 -25 11 -48 19 -53 8 -4 15 -16 15 -27 0 -10 7 -25 15 -33 8 -8 12
-17 9 -19 -2 -3 3 -11 12 -19 14 -11 19 -10 34 9 25 30 45 29 25 -1 -8 -13
-12 -27 -8 -31 10 -10 -17 -26 -44 -26 -19 0 -34 25 -48 80 -4 13 -17 47 -26
62 -5 10 -9 26 -9 37 0 11 -9 40 -20 66 -11 26 -18 51 -15 55 3 5 -3 13 -12
19 -11 6 -13 11 -5 11 7 0 10 4 7 10 -4 6 1 7 11 3 12 -4 14 -8 5 -11z m254
-2 c3 -5 1 -10 -4 -10 -6 0 -11 -5 -11 -11 0 -5 5 -7 10 -4 6 4 5 -5 -2 -19
-6 -14 -14 -26 -18 -26 -4 0 -10 -12 -13 -27 -11 -59 -17 -82 -33 -114 -17
-37 -15 -29 14 80 11 41 26 77 32 81 9 5 9 13 1 27 -14 27 8 48 24 23z"/>
<path d="M4690 2300 l0 -200 135 0 135 0 0 36 0 36 -95 -4 -95 -3 0 58 0 58
77 -2 78 -2 6 31 6 32 -83 0 -84 0 0 48 0 47 95 -3 95 -3 0 35 0 36 -135 0
-135 0 0 -200z m80 160 c0 -5 -4 -10 -9 -10 -5 0 -12 -11 -15 -25 -4 -14 -10
-25 -14 -25 -9 0 -14 48 -6 61 7 12 44 11 44 -1z m-25 -91 c-6 -17 -1 -24 40
-55 11 -9 15 -13 8 -10 -19 10 -45 -5 -38 -23 5 -12 2 -11 -12 4 -22 23 -27
102 -6 102 8 0 11 -7 8 -18z m-4 -144 c-1 -11 -4 -36 -7 -55 -5 -33 -5 -34 10
-15 15 19 17 17 20 -17 1 -12 -33 -21 -35 -10 -1 4 -2 43 -4 87 -2 62 0 74 8
55 5 -14 9 -34 8 -45z m162 -92 c-18 -2 -48 -2 -65 0 -18 2 -4 4 32 4 36 0 50
-2 33 -4z"/>
<path d="M4740 2309 c0 -5 5 -7 10 -4 6 3 10 8 10 11 0 2 -4 4 -10 4 -5 0 -10
-5 -10 -11z"/>
<path d="M1766 2475 c-11 -8 -15 -15 -9 -15 7 0 15 5 18 10 4 6 11 8 16 5 5
-4 9 -1 9 4 0 15 -11 13 -34 -4z"/>
<path d="M4236 2482 c-3 -5 1 -9 9 -9 8 0 12 4 9 9 -3 4 -7 8 -9 8 -2 0 -6 -4
-9 -8z"/>
<path d="M1733 2435 c-3 -9 -3 -18 -1 -21 3 -3 8 4 11 16 6 23 -1 27 -10 5z"/>
<path d="M1604 2388 c-4 -7 -4 -10 1 -6 4 4 15 2 24 -5 14 -11 14 -10 2 6 -16
20 -18 21 -27 5z"/>
<path d="M4898 2393 c7 -3 16 -2 19 1 4 3 -2 6 -13 5 -11 0 -14 -3 -6 -6z"/>
<path d="M1261 2374 c0 -11 3 -14 6 -6 3 7 2 16 -1 19 -3 4 -6 -2 -5 -13z"/>
<path d="M2017 2369 c7 -7 15 -10 18 -7 3 3 -2 9 -12 12 -14 6 -15 5 -6 -5z"/>
<path d="M2116 2368 c3 -5 10 -6 15 -3 13 9 11 12 -6 12 -8 0 -12 -4 -9 -9z"/>
<path d="M4252 2360 c0 -14 2 -19 5 -12 2 6 2 18 0 25 -3 6 -5 1 -5 -13z"/>
<path d="M1741 2354 c0 -11 3 -14 6 -6 3 7 2 16 -1 19 -3 4 -6 -2 -5 -13z"/>
<path d="M4623 2320 c0 -23 3 -28 9 -16 5 9 5 23 0 32 -6 12 -9 7 -9 -16z"/>
<path d="M10 2310 c8 -5 62 -10 120 -10 64 0 100 4 91 9 -20 13 -230 14 -211
1z"/>
<path d="M240 2309 c0 -5 5 -7 10 -4 6 3 10 8 10 11 0 2 -4 4 -10 4 -5 0 -10
-5 -10 -11z"/>
<path d="M1145 2310 c-3 -5 3 -10 15 -10 12 0 18 5 15 10 -3 6 -10 10 -15 10
-5 0 -12 -4 -15 -10z"/>
<path d="M1190 2312 c0 -4 43 -9 95 -10 63 -3 95 0 95 7 0 7 -34 11 -95 11
-52 0 -95 -3 -95 -8z"/>
<path d="M1905 2269 c-4 -6 -5 -12 -2 -15 2 -3 7 2 10 11 7 17 1 20 -8 4z"/>
<path d="M2041 2267 c-8 -10 -7 -14 2 -14 8 0 14 6 14 14 0 7 -1 13 -2 13 -2
0 -8 -6 -14 -13z"/>
<path d="M1463 2255 c0 -8 4 -12 9 -9 5 3 6 10 3 15 -9 13 -12 11 -12 -6z"/>
<path d="M1365 2190 c-3 -5 -2 -17 3 -26 6 -11 11 -13 16 -5 4 6 2 11 -3 11
-6 0 -11 5 -11 11 0 6 7 8 16 5 8 -3 12 -2 9 4 -8 13 -22 13 -30 0z"/>
<path d="M3461 2093 c7 -12 15 -20 18 -17 3 2 -3 12 -13 22 -17 16 -18 16 -5
-5z"/>
<path d="M4519 2093 c-13 -16 -12 -17 4 -4 16 13 21 21 13 21 -2 0 -10 -8 -17
-17z"/>
<path d="M2870 2090 c-9 -6 -10 -10 -3 -10 6 0 15 5 18 10 8 12 4 12 -15 0z"/>
<path d="M3197 2089 c7 -7 15 -10 18 -7 3 3 -2 9 -12 12 -14 6 -15 5 -6 -5z"/>
<path d="M3443 2075 c0 -8 4 -12 9 -9 5 3 6 10 3 15 -9 13 -12 11 -12 -6z"/>
<path d="M3493 2075 c0 -8 4 -12 9 -9 5 3 6 10 3 15 -9 13 -12 11 -12 -6z"/>
<path d="M3770 2080 c-8 -5 -10 -10 -5 -10 6 0 17 5 25 10 8 5 11 10 5 10 -5
0 -17 -5 -25 -10z"/>
<path d="M4078 2083 c7 -3 16 -2 19 1 4 3 -2 6 -13 5 -11 0 -14 -3 -6 -6z"/>
<path d="M1663 2066 c-9 -11 -9 -15 0 -19 7 -3 14 3 14 14 2 22 2 22 -14 5z"/>
<path d="M2167 2069 c7 -7 15 -10 18 -7 3 3 -2 9 -12 12 -14 6 -15 5 -6 -5z"/>
<path d="M2427 2069 c7 -7 15 -10 18 -7 3 3 -2 9 -12 12 -14 6 -15 5 -6 -5z"/>
<path d="M4028 2073 c7 -3 16 -2 19 1 4 3 -2 6 -13 5 -11 0 -14 -3 -6 -6z"/>
<path d="M2505 2060 c3 -5 8 -10 11 -10 2 0 4 5 4 10 0 6 -5 10 -11 10 -5 0
-7 -4 -4 -10z"/>
<path d="M1847 2049 c7 -7 15 -10 18 -7 3 3 -2 9 -12 12 -14 6 -15 5 -6 -5z"/>
<path d="M3466 2052 c-3 -4 4 -9 15 -9 23 -2 25 3 4 10 -8 4 -16 3 -19 -1z"/>
<path d="M3696 2052 c-3 -5 1 -9 9 -9 8 0 15 4 15 9 0 4 -4 8 -9 8 -6 0 -12
-4 -15 -8z"/>
<path d="M3778 2053 c7 -3 16 -2 19 1 4 3 -2 6 -13 5 -11 0 -14 -3 -6 -6z"/>
<path d="M3820 2050 c-9 -6 -10 -10 -3 -10 6 0 15 5 18 10 8 12 4 12 -15 0z"/>
<path d="M1062 1998 l-2 -38 -175 0 c-152 0 -175 2 -175 16 0 8 -5 12 -10 9
-6 -4 -8 -11 -5 -16 4 -5 -136 -10 -347 -12 -194 -1 -38 -2 347 -2 385 0 627
1 538 2 l-162 3 -4 38 -4 37 -1 -37z"/>
<path d="M330 1996 c0 -14 5 -26 10 -26 6 0 10 9 10 19 0 11 -4 23 -10 26 -6
4 -10 -5 -10 -19z"/>
</g>
</svg>
