<?xml version="1.0" standalone="no"?> <!DOCTYPE svg PUBLIC "-//W3C//DTD SVG 20010904//EN" "http://www.w3.org/TR/2001/REC-SVG-20010904/DTD/svg10.dtd"> <svg version="1.0" xmlns="http://www.w3.org/2000/svg" width="500.000000pt" height="500.000000pt" viewBox="0 0 500.000000 500.000000" preserveAspectRatio="xMidYMid meet"> <g transform="translate(0.000000,500.000000) scale(0.100000,-0.100000)" fill="#e61919" stroke="none"> <path d="M936 3070 c8 -43 14 -51 14 -19 0 13 -5 31 -10 39 -7 11 -8 5 -4 -20z"/> <path d="M1075 3083 c-11 -3 -25 -12 -31 -21 -6 -8 -26 -22 -45 -31 -25 -13 -33 -23 -32 -39 2 -17 -2 -21 -19 -19 -15 1 -26 -6 -35 -25 -8 -15 -22 -30 -33 -33 -26 -8 -26 -45 0 -52 22 -6 26 -23 9 -40 -13 -13 -18 -112 -7 -135 5 -10 15 -18 23 -18 9 0 15 -19 20 -64 l7 -64 92 -7 c114 -9 230 4 233 25 1 8 4 36 8 61 4 35 11 48 25 52 18 4 20 14 20 76 0 41 -4 71 -10 71 -19 0 -10 38 10 43 11 3 20 12 20 21 0 18 -28 49 -53 59 -9 3 -17 17 -17 29 0 13 -9 34 -20 48 -17 22 -22 23 -40 12 -17 -10 -21 -10 -26 3 -4 8 -12 15 -19 15 -7 0 -15 9 -18 20 -5 20 -21 23 -62 13z m48 -23 c4 -14 0 -20 -12 -20 -10 0 -26 -9 -36 -20 -16 -18 -20 -19 -27 -6 -12 21 12 58 35 52 9 -2 17 0 17 5 0 17 18 9 23 -11z m43 -52 c8 -13 17 -31 20 -41 4 -12 15 -16 37 -15 17 1 32 -3 35 -10 2 -6 11 -12 20 -12 14 0 15 -2 2 -10 -8 -5 -19 -5 -25 -1 -20 16 -64 21 -71 9 -5 -7 -2 -9 7 -6 8 3 23 2 34 -3 14 -5 5 -8 -30 -8 -33 -1 -45 2 -36 8 20 13 7 38 -23 43 -30 6 -66 -14 -48 -26 7 -4 12 -2 12 3 0 6 11 10 25 9 28 -3 31 -8 13 -26 -17 -17 -88 -16 -88 1 0 8 -11 20 -25 27 -20 11 -27 11 -40 0 -8 -7 -15 -19 -15 -26 0 -8 -11 -14 -26 -14 -21 0 -25 4 -22 23 2 16 10 22 28 22 20 0 26 6 28 28 2 15 6 27 10 27 4 0 17 3 30 6 19 5 23 3 20 -11 -5 -28 19 -29 43 -1 12 13 27 22 34 20 7 -3 16 0 20 6 8 13 13 10 31 -22z m84 -29 c0 -4 -9 -9 -20 -12 -13 -3 -21 1 -25 14 -4 10 -11 19 -18 19 -6 0 -2 7 9 14 17 13 21 13 36 -7 10 -12 18 -25 18 -28z m-220 -54 c11 -13 8 -15 -19 -15 -31 0 -42 14 -18 23 20 9 24 8 37 -8z m280 -37 c0 -15 -24 -19 -147 -24 -137 -6 -274 5 -280 21 -2 6 73 10 212 10 118 0 215 -3 215 -7z m-103 -51 c-3 -11 -227 -16 -227 -6 0 3 -13 4 -29 1 -16 -2 -32 1 -35 7 -5 7 40 10 144 9 93 -1 149 -5 147 -11z m63 4 c0 -5 -11 -8 -25 -8 -14 0 -25 3 -25 8 0 5 11 9 25 9 14 0 25 -4 25 -9z m30 -91 l0 -60 -73 0 c-65 0 -76 3 -97 25 -13 14 -29 25 -35 25 -6 0 -22 -11 -35 -25 -21 -22 -32 -25 -97 -25 l-73 0 0 60 0 60 205 0 205 0 0 -60z m-178 -53 c10 -10 31 -20 46 -23 26 -5 27 -7 24 -65 l-4 -60 -96 3 -96 3 -4 58 c-3 55 -2 57 21 57 13 0 35 11 48 23 28 28 36 28 61 4z m-145 -62 c1 -21 -3 -35 -10 -35 -8 0 -8 -3 -2 -8 16 -12 16 -32 0 -32 -9 0 -15 10 -16 28 0 15 -3 39 -5 55 -4 21 -1 27 13 27 14 0 18 -9 20 -35z m267 26 c3 -4 2 -28 -2 -52 -6 -33 -13 -45 -27 -47 -12 -2 -16 0 -9 5 7 4 10 23 8 41 -2 19 1 32 7 32 8 0 7 5 -1 15 -10 12 -10 15 3 15 9 0 18 -4 21 -9z"/> <path d="M910 2752 c0 -45 10 -52 68 -52 51 0 64 11 60 51 l-3 34 -62 3 -63 3 0 -39z m110 -2 c0 -29 -1 -30 -50 -30 -46 0 -50 2 -50 23 0 32 3 33 55 35 44 2 45 1 45 -28z"/> <path d="M1150 2750 c0 -41 10 -49 65 -49 55 0 65 8 65 49 l0 40 -65 0 -65 0 0 -40z m115 0 c0 -22 -5 -25 -44 -28 -49 -4 -66 10 -50 41 8 14 20 17 52 15 37 -3 42 -6 42 -28z"/> <path d="M1226 2754 c-11 -8 -16 -14 -10 -14 13 0 39 18 34 24 -3 2 -14 -2 -24 -10z"/> <path d="M1068 2683 c-7 -8 -12 -38 -13 -67 0 -49 1 -51 28 -54 36 -4 57 13 57 49 0 62 -44 106 -72 72z m56 -42 c3 -5 -10 -11 -29 -13 -24 -3 -35 0 -35 9 0 15 56 18 64 4z m1 -43 c3 -3 0 -10 -7 -15 -14 -12 -63 2 -54 15 5 8 53 9 61 0z"/> <path d="M966 3072 c-3 -5 1 -9 9 -9 8 0 12 4 9 9 -3 4 -7 8 -9 8 -2 0 -6 -4 -9 -8z"/> <path d="M1307 2989 c7 -7 15 -10 18 -7 3 3 -2 9 -12 12 -14 6 -15 5 -6 -5z"/> <path d="M1343 2986 c-4 -7 -15 -16 -23 -20 -8 -3 -5 -4 8 -2 17 3 22 1 18 -10 -4 -11 -2 -12 15 -1 17 10 17 13 4 15 -10 2 -14 10 -11 18 7 18 0 18 -11 0z"/> <path d="M2177 2989 c7 -7 15 -10 18 -7 3 3 -2 9 -12 12 -14 6 -15 5 -6 -5z"/> <path d="M2825 2990 c-3 -6 1 -7 9 -4 18 7 21 14 7 14 -6 0 -13 -4 -16 -10z"/> <path d="M3543 2986 c-4 -7 -15 -16 -23 -19 -12 -4 -12 -6 2 -6 10 -1 22 8 28 19 12 22 6 28 -7 6z"/> <path d="M3716 2988 c3 -5 10 -6 15 -3 13 9 11 12 -6 12 -8 0 -12 -4 -9 -9z"/> <path d="M3790 2980 c6 -11 13 -20 16 -20 2 0 0 9 -6 20 -6 11 -13 20 -16 20 -2 0 0 -9 6 -20z"/> <path d="M1970 2986 c0 -2 7 -7 16 -10 8 -3 12 -2 9 4 -6 10 -25 14 -25 6z"/> <path d="M2905 2980 c3 -5 8 -10 11 -10 2 0 4 5 4 10 0 6 -5 10 -11 10 -5 0 -7 -4 -4 -10z"/> <path d="M3690 2981 c0 -6 4 -13 10 -16 6 -3 7 1 4 9 -7 18 -14 21 -14 7z"/> <path d="M1708 2973 c7 -3 16 -2 19 1 4 3 -2 6 -13 5 -11 0 -14 -3 -6 -6z"/> <path d="M1780 2970 c8 -5 22 -9 30 -9 10 0 8 3 -5 9 -27 12 -43 12 -25 0z"/> <path d="M823 2963 c15 -2 39 -2 55 0 15 2 2 4 -28 4 -30 0 -43 -2 -27 -4z"/> <path d="M1555 2938 c-30 -17 -44 -40 -45 -69 0 -40 28 -67 90 -87 42 -13 56 -22 58 -39 6 -45 -67 -53 -104 -12 -16 18 -18 18 -36 3 -25 -23 -23 -31 15 -54 42 -26 126 -27 156 -2 12 9 24 34 28 55 8 50 -21 81 -88 97 -55 13 -78 40 -54 60 14 12 64 10 95 -4 9 -4 20 1 27 14 11 17 9 21 -17 35 -34 18 -97 19 -125 3z m140 -157 c3 -5 2 -12 -3 -15 -5 -3 -9 1 -9 9 0 17 3 19 12 6z"/> <path d="M1823 2931 c-42 -26 -63 -69 -63 -126 0 -92 47 -145 129 -145 51 0 85 16 102 47 12 22 11 27 -6 39 -17 13 -21 11 -40 -13 -28 -35 -80 -36 -107 -4 -26 33 -25 124 2 151 26 26 74 26 100 0 16 -16 25 -18 40 -10 26 14 25 22 -5 50 -35 32 -109 38 -152 11z m-5 -41 c-7 -10 -14 -17 -17 -15 -4 4 18 35 25 35 2 0 -1 -9 -8 -20z"/> <path d="M2050 2806 l0 -146 31 0 31 0 -4 60 c-3 60 -3 60 24 60 30 0 49 -22 68 -82 10 -33 16 -38 42 -38 25 0 29 3 23 18 -4 9 -14 36 -22 60 -9 24 -22 46 -30 49 -11 5 -8 11 13 28 34 27 37 76 7 106 -16 16 -38 22 -102 26 l-81 6 0 -147z m60 110 c0 -2 -7 -7 -16 -10 -8 -3 -12 -2 -9 4 6 10 25 14 25 6z m88 -45 c5 -30 -20 -51 -60 -51 -26 0 -28 3 -28 41 l0 40 43 -3 c36 -3 42 -6 45 -27z m-98 -72 c0 -5 -4 -9 -8 -9 -5 0 -9 7 -9 15 0 8 4 12 9 9 4 -3 8 -9 8 -15z"/> <path d="M2320 2805 l0 -145 95 0 c95 0 95 0 95 25 0 24 -2 25 -67 25 l-68 0 -1 41 0 41 58 -4 c54 -3 58 -2 58 20 0 20 -5 22 -57 22 l-58 0 -1 35 -1 35 69 0 c66 0 68 1 68 25 0 25 0 25 -95 25 l-95 0 0 -145z m45 105 c-3 -5 -12 -10 -18 -10 -7 0 -6 4 3 10 19 12 23 12 15 0z m1 -95 c9 -8 11 -15 6 -15 -5 0 -15 7 -22 15 -7 8 -9 15 -6 15 4 0 14 -7 22 -15z m-11 -115 c3 -5 1 -10 -4 -10 -6 0 -11 5 -11 10 0 6 2 10 4 10 3 0 8 -4 11 -10z"/> <path d="M2565 2804 l0 -144 97 0 c98 0 98 0 98 25 0 24 -2 25 -70 25 l-70 0 0 41 0 41 60 -4 c57 -4 60 -3 60 19 0 21 -4 23 -60 23 l-60 0 0 35 0 35 68 0 c64 0 67 1 68 25 l2 25 -97 -1 -96 0 0 -145z m50 -3 c-3 -6 -11 -11 -16 -11 -5 0 -4 6 3 14 14 16 24 13 13 -3z m-18 -43 c-3 -8 -6 -5 -6 6 -1 11 2 17 5 13 3 -3 4 -12 1 -19z m18 -68 c3 -6 -1 -7 -9 -4 -18 7 -21 14 -7 14 6 0 13 -4 16 -10z"/> <path d="M2810 2805 l0 -145 31 0 30 0 -1 93 c-1 50 -1 96 -1 101 1 5 28 -36 62 -92 55 -92 64 -102 90 -102 l29 0 0 145 0 145 -25 0 c-24 0 -24 -1 -27 -97 l-3 -98 -60 97 c-56 91 -62 98 -92 98 l-33 0 0 -145z m63 91 c4 -10 1 -13 -9 -9 -10 4 -12 0 -8 -11 3 -9 1 -16 -5 -16 -6 0 -11 8 -11 18 0 32 23 44 33 18z m117 -156 c0 -5 -2 -10 -4 -10 -3 0 -8 5 -11 10 -3 6 -1 10 4 10 6 0 11 -4 11 -10z m24 -22 c-4 -14 -2 -18 5 -14 6 4 11 2 11 -3 0 -16 -20 -13 -26 4 -4 8 -10 12 -16 9 -5 -3 -4 3 3 14 16 25 32 18 23 -10z"/> <path d="M3122 2805 l0 -145 29 0 c29 0 29 0 29 65 l0 65 65 0 65 0 0 -65 0 -65 31 0 31 0 -5 143 -4 142 -27 3 c-25 3 -26 2 -26 -52 l0 -56 -65 0 -65 0 0 55 c0 54 0 55 -29 55 l-29 0 0 -145z m210 0 c-7 -14 -11 -15 -17 -4 -5 7 -4 14 3 17 7 2 9 9 6 15 -5 9 -4 9 6 0 8 -7 9 -16 2 -28z m-164 -3 c2 -7 -1 -12 -8 -12 -6 0 -9 4 -6 9 4 5 1 12 -4 14 -6 3 -5 4 2 3 6 -1 14 -8 16 -14z"/> <path d="M3440 2805 l0 -145 30 0 30 0 0 145 0 145 -30 0 -30 0 0 -145z"/> <path d="M3542 2938 c2 -7 23 -73 48 -145 l44 -133 36 0 35 0 43 133 c24 72 46 138 49 145 3 8 -5 12 -26 12 -30 0 -31 -2 -62 -102 -17 -57 -34 -106 -37 -110 -4 -4 -22 43 -41 103 -33 106 -35 109 -63 109 -19 0 -28 -5 -26 -12z m129 -240 c11 -21 11 -22 -4 -9 -10 7 -17 17 -17 22 0 15 9 10 21 -13z"/> <path d="M3686 2933 c-6 -15 -8 -15 -17 -3 -7 10 -9 11 -7 2 2 -8 7 -13 12 -12 5 1 12 -4 16 -10 4 -7 8 -1 8 14 0 30 -3 33 -12 9z"/> <path d="M3840 2804 l0 -144 99 0 99 0 0 26 c0 25 -1 26 -69 22 l-69 -3 0 43 0 43 58 -2 c52 -3 57 -1 60 19 3 21 0 22 -57 22 l-61 0 0 35 0 35 65 0 c63 0 65 1 65 25 0 25 0 25 -95 24 l-95 -1 0 -144z"/> <path d="M1452 2890 c0 -14 2 -19 5 -12 2 6 2 18 0 25 -3 6 -5 1 -5 -13z"/> <path d="M2936 2898 c3 -5 10 -6 15 -3 13 9 11 12 -6 12 -8 0 -12 -4 -9 -9z"/> <path d="M1872 2871 c-11 -6 -10 -10 4 -15 9 -3 19 -4 22 -1 3 3 0 5 -7 5 -7 0 -9 5 -6 10 7 12 4 12 -13 1z"/> <path d="M1686 2861 c-4 -5 -2 -12 3 -15 5 -4 12 -2 15 3 4 5 2 12 -3 15 -5 4 -12 2 -15 -3z"/> <path d="M1480 2821 c0 -6 4 -13 10 -16 6 -3 7 1 4 9 -7 18 -14 21 -14 7z"/> <path d="M800 2810 c0 -12 8 -12 35 0 18 8 17 9 -7 9 -16 1 -28 -3 -28 -9z"/> <path d="M1451 2804 c0 -11 3 -14 6 -6 3 7 2 16 -1 19 -3 4 -6 -2 -5 -13z"/> <path d="M2275 2799 c-4 -6 -5 -12 -2 -15 2 -3 7 2 10 11 7 17 1 20 -8 4z"/> <path d="M2920 2706 c0 -2 8 -10 18 -17 15 -13 16 -12 3 4 -13 16 -21 21 -21 13z"/> <path d="M1736 2692 c-3 -5 1 -9 9 -9 8 0 12 4 9 9 -3 4 -7 8 -9 8 -2 0 -6 -4 -9 -8z"/> <path d="M1324 2659 c-3 -5 9 -9 25 -9 17 0 31 2 31 4 0 8 -51 13 -56 5z"/> <path d="M818 2653 c12 -2 32 -2 45 0 12 2 2 4 -23 4 -25 0 -35 -2 -22 -4z"/> <path d="M1780 2650 c-9 -6 -10 -10 -3 -10 6 0 15 5 18 10 8 12 4 12 -15 0z"/> <path d="M3055 2630 c-13 -6 -15 -9 -5 -9 8 0 22 4 30 9 18 12 2 12 -25 0z"/> <path d="M3287 2629 c7 -7 15 -10 18 -7 3 3 -2 9 -12 12 -14 6 -15 5 -6 -5z"/> <path d="M1998 2623 c7 -3 16 -2 19 1 4 3 -2 6 -13 5 -11 0 -14 -3 -6 -6z"/> <path d="M2148 2623 c7 -3 16 -2 19 1 4 3 -2 6 -13 5 -11 0 -14 -3 -6 -6z"/> <path d="M3100 2621 c0 -10 19 -25 25 -20 1 2 -3 10 -11 17 -8 7 -14 8 -14 3z"/> <path d="M3325 2619 c-4 -6 -5 -12 -2 -15 2 -3 7 2 10 11 7 17 1 20 -8 4z"/> <path d="M3391 2614 c0 -11 3 -14 6 -6 3 7 2 16 -1 19 -3 4 -6 -2 -5 -13z"/> <path d="M1927 2609 c7 -7 15 -10 18 -7 3 3 -2 9 -12 12 -14 6 -15 5 -6 -5z"/> <path d="M1960 2616 c0 -2 7 -7 16 -10 8 -3 12 -2 9 4 -6 10 -25 14 -25 6z"/> <path d="M2778 2613 c7 -3 16 -2 19 1 4 3 -2 6 -13 5 -11 0 -14 -3 -6 -6z"/> <path d="M3345 2610 c-3 -6 1 -7 9 -4 18 7 21 14 7 14 -6 0 -13 -4 -16 -10z"/> <path d="M3708 2613 c7 -3 16 -2 19 1 4 3 -2 6 -13 5 -11 0 -14 -3 -6 -6z"/> <path d="M818 2503 c12 -2 32 -2 45 0 12 2 2 4 -23 4 -25 0 -35 -2 -22 -4z"/> <path d="M938 2503 c7 -3 16 -2 19 1 4 3 -2 6 -13 5 -11 0 -14 -3 -6 -6z"/> <path d="M1238 2503 c6 -2 18 -2 25 0 6 3 1 5 -13 5 -14 0 -19 -2 -12 -5z"/> <path d="M1298 2503 c12 -2 32 -2 45 0 12 2 2 4 -23 4 -25 0 -35 -2 -22 -4z"/> </g> </svg>